<?xml version="1.0" encoding="UTF-8"?>
<!-- Generated by Pixelmator Pro 3.3 -->
<svg width="1000" height="303" viewBox="0 0 1000 303" xmlns="http://www.w3.org/2000/svg" xmlns:xlink="http://www.w3.org/1999/xlink">
    <g id="Group">
        <path id="Path" fill="#a6a8ab" stroke="none" d="M 121.819008 67.835815 C 196.461533 67.835815 244.343887 121.991409 244.343887 185.417908 C 244.343887 247.410812 198.574646 302.995483 121.819008 302.995483 C 47.180996 303.705475 -0 248.125351 -0 186.12793 C -0 121.991409 48.588234 67.835815 121.819008 67.835815 Z M 121.819008 273.776306 C 172.520355 273.776306 210.542984 236.719879 210.542984 186.12793 C 210.542984 135.531448 173.221725 98.479523 121.819008 98.479523 C 71.122177 98.479523 33.800903 135.531448 33.800903 186.123398 C 33.800903 236.005341 71.122177 273.776306 121.819008 273.776306 Z M 342.475098 72.358215 C 388.538452 72.358215 417.59729 96.937378 417.59729 135.558578 C 417.59729 161.539703 404.131226 181.203049 379.325806 191.034729 C 399.877838 204.375763 412.638 225.445572 430.352936 253.534119 C 440.276031 268.982605 445.945709 276.706848 461.538452 298.4776 L 422.561096 298.4776 L 392.081451 252.132172 C 361.61087 205.782227 348.144806 200.160889 331.131226 200.160889 L 317.665161 200.160889 L 317.665161 298.4776 L 285.067871 298.4776 L 285.067871 72.358215 L 342.475098 72.358215 Z M 317.669678 170.674927 L 338.932129 170.674927 C 374.362 170.674927 384.289612 152.413528 383.579193 134.156647 C 383.579193 113.086838 370.819 99.741272 338.932129 99.741272 L 317.665161 99.741272 L 317.665161 170.674927 Z M 663.058777 122.543152 C 635.072388 106.199249 611.280579 98.384537 585.38916 98.384537 C 533.61084 98.384537 495.126678 135.332458 495.126678 185.775177 C 495.126678 236.923386 532.212708 272.451263 586.090515 272.451263 C 611.280579 272.451263 639.266968 263.212036 665.158386 246.87265 L 665.158386 283.106018 C 642.769226 295.180817 618.977417 303 583.289612 303 C 498.62442 303 461.538452 236.927917 461.538452 188.615234 C 461.538452 118.984024 513.316772 67.835815 585.38916 67.835815 C 608.479614 67.835815 632.271484 73.520462 663.058777 86.309769 L 663.058777 122.543152 Z"/>
        <path id="path1" fill="#a5cd39" stroke="none" d="M 791.855225 72.358215 L 879.457031 72.358215 C 962.855225 72.358215 1000 132.049194 1000 185.417908 C 1000 243.702454 954.447937 298.4776 880.158386 298.4776 L 791.855225 298.4776 L 791.855225 72.358215 Z M 824.095032 268.982605 L 875.950256 268.982605 C 949.538513 268.982605 966.357483 212.805481 966.357483 184.716949 C 966.357483 139.072479 937.62439 100.446762 874.552063 100.446762 L 824.796387 100.446762 L 824.796387 268.982605 L 824.099609 268.982605 Z"/>
        <g id="g1">
            <path id="path2" fill="#a5cd39" stroke="none" d="M 742.59729 298.4776 L 709.891418 298.4776 L 709.891418 69.644791 L 742.59729 69.644791 L 742.59729 196.855026 Z M 747.574707 21.318542 C 747.574707 33.402374 737.619934 42.641602 726.244324 42.641602 C 714.158325 42.641602 704.914001 32.692352 704.914001 21.318542 C 704.914001 9.949249 714.868774 0 726.244324 0 C 738.330322 0 747.574707 9.949249 747.574707 21.318542 Z"/>
        </g>
    </g>
</svg>
