<svg width="94" height="34" viewBox="0 0 94 34" fill="none" xmlns="http://www.w3.org/2000/svg">
<path fill-rule="evenodd" clip-rule="evenodd" d="M81.2139 22.4217C82.0922 22.3496 82.9519 22.2184 83.7931 22.0282L85.3886 12.8465C85.2143 13.2765 84.9925 13.6647 84.7232 14.011C84.1783 14.7115 83.4855 15.2486 82.6449 15.6223C82.5565 15.6599 82.4672 15.6956 82.3769 15.7293L81.2139 22.4217ZM82.3326 6.35151L76.7836 6.3283L75.0771 16.145L79.866 16.1593C80.1279 16.1593 80.3841 16.1473 80.6346 16.1234L79.5287 22.4875L73.9771 22.4725L71.9732 34H63.9869L69.8715 0L82.6215 0.0233516C82.8931 0.0290495 83.1613 0.0412354 83.4259 0.0599093L82.3326 6.35151ZM83.9439 6.71133C84.1907 6.8282 84.4115 6.97295 84.6064 7.1456C85.1513 7.62821 85.5171 8.24313 85.7039 8.99039C85.7955 9.35675 85.8478 9.73622 85.8608 10.1288L87.4561 0.948475C86.6976 0.648464 85.9002 0.421127 85.0639 0.266464L83.9439 6.71133ZM89.0009 1.69115L85.5526 21.535C85.7757 21.46 85.9974 21.3805 86.2177 21.2967C86.9476 21.0156 87.6343 20.6837 88.2778 20.3012L91.2148 3.39978C90.5725 2.74014 89.8346 2.17059 89.0009 1.69115ZM92.581 5.17017L90.1953 18.899C90.6413 18.5016 91.059 18.071 91.4485 17.6071C92.8496 15.957 93.6513 13.8709 93.8537 11.3489C94.0405 9.01374 93.6513 7.01328 92.6861 5.34753C92.6516 5.28793 92.6165 5.22881 92.581 5.17017ZM1.78093 34H5.77406H6.91829H10.0708L17.3908 14.7361L18.7809 34H22.0969H23.2177H27.0241L39.3537 0H31.2974L24.2063 21.241L22.9142 0H19.9252H18.8276H16.1188L8.34486 21.0962L7.87571 0H0.0996094L1.78093 34ZM41.1621 0L53.7486 0.0233516C55.8191 0.0544872 57.7262 0.428114 59.4698 1.14423C61.2134 1.86035 62.5833 2.95788 63.5797 4.43681C64.576 5.90018 64.9963 7.7761 64.8407 10.0646C64.7005 11.9483 64.2802 13.5362 63.5797 14.8283C62.8791 16.1049 61.9295 17.1946 60.7308 18.0975C59.7443 18.8406 58.6155 19.5151 57.3444 20.1211L62.0385 33.603V34H53.5151L49.7689 21.9973H45.3503L43.2637 34H35.2775L41.1621 0ZM51.0632 15.7157L46.4472 15.6876L48.0742 6.3283L53.4918 6.35165C54.3635 6.39835 55.0641 6.6163 55.5934 7.00549C56.1227 7.39469 56.4808 7.92399 56.6676 8.59341C56.8544 9.24725 56.8855 9.99451 56.761 10.8352C56.6209 11.8626 56.294 12.7344 55.7802 13.4506C55.2665 14.1667 54.6049 14.7193 53.7953 15.1085C53.0014 15.4977 52.0907 15.7001 51.0632 15.7157Z" fill="url(#paint0_linear_4419_14121)"/>
<defs>
<linearGradient id="paint0_linear_4419_14121" x1="0.0996094" y1="17" x2="93.5996" y2="17" gradientUnits="userSpaceOnUse">
<stop offset="0.708333" stop-color="#1976D2"/>
<stop offset="1" stop-color="#1976D2" stop-opacity="0.22"/>
</linearGradient>
</defs>
</svg>
