<?xml version="1.0" encoding="UTF-8" standalone="no"?>
<!DOCTYPE svg PUBLIC "-//W3C//DTD SVG 1.1//EN" "http://www.w3.org/Graphics/SVG/1.1/DTD/svg11.dtd">
<svg width="100%" height="100%" viewBox="0 0 882 616" version="1.1" xmlns="http://www.w3.org/2000/svg" xmlns:xlink="http://www.w3.org/1999/xlink" xml:space="preserve" xmlns:serif="http://www.serif.com/" style="fill-rule:evenodd;clip-rule:evenodd;stroke-linejoin:round;stroke-miterlimit:2;">
    <g id="Layer-1" serif:id="Layer 1">
        <g transform="matrix(1,0,0,1,208.3,440.22)">
            <path d="M0,0C0,-10.43 -7.55,-17.52 -16.31,-17.52C-25.07,-17.52 -32.62,-10.399 -32.62,0C-32.62,10.4 -25.07,17.521 -16.31,17.521C-7.55,17.521 -0.05,10.34 -0.05,0L0,0ZM12.7,0C12.7,16.017 -0.284,29 -16.3,29C-32.316,29 -45.3,16.017 -45.3,0C-45.3,-16.016 -32.316,-29 -16.3,-29C-0.284,-29 12.7,-16.016 12.7,0" style="fill:rgb(232,67,53);fill-rule:nonzero;"/>
        </g>
        <g transform="matrix(1,0,0,1,270.83,440.22)">
            <path d="M0,0C0,-10.43 -7.55,-17.52 -16.31,-17.52C-25.07,-17.52 -32.62,-10.399 -32.62,0C-32.62,10.4 -25.07,17.521 -16.31,17.521C-7.55,17.521 0,10.34 0,0M12.7,0C12.7,16.017 -0.284,29 -16.3,29C-32.316,29 -45.3,16.017 -45.3,0C-45.3,-16.016 -32.316,-29 -16.3,-29C-0.284,-29 12.7,-16.016 12.7,0" style="fill:rgb(245,188,15);fill-rule:nonzero;"/>
        </g>
        <g transform="matrix(1,0,0,1,332.35,465.959)">
            <path d="M0,-25.599C0,-35.78 -6.8,-43.219 -15.44,-43.219C-24.08,-43.219 -31.54,-35.78 -31.54,-25.599C-31.54,-15.419 -24.2,-8.179 -15.43,-8.179C-6.66,-8.179 0,-15.519 0,-25.599M11.16,-52.87L11.16,-0.95C11.16,20.401 -1.44,29.13 -16.33,29.13C-27.55,29.204 -37.691,22.458 -41.96,12.081L-30.9,7.481C-28.9,12.191 -24.11,17.741 -16.34,17.741C-6.81,17.741 -0.9,11.861 -0.9,0.741L-0.9,-3.419L-1.35,-3.419C-5.218,0.892 -10.791,3.278 -16.58,3.1C-31.03,3.1 -44.28,-9.49 -44.28,-25.7C-44.28,-41.91 -31.07,-54.7 -16.58,-54.7C-10.789,-54.803 -5.235,-52.396 -1.35,-48.099L-0.9,-48.099L-0.9,-52.86L11.16,-52.86L11.16,-52.87Z" style="fill:rgb(62,129,186);fill-rule:nonzero;"/>
        </g>
        <g transform="matrix(-1,0,0,1,714.39,234.07)">
            <rect x="351" y="148.59" width="12.39" height="84.75" style="fill:rgb(49,159,79);"/>
        </g>
        <g transform="matrix(1,0,0,1,381.32,441.094)">
            <path d="M0,-1.744L25.84,-12.473C24.42,-16.084 20.14,-18.603 15.11,-18.603C6.36,-18.21 -0.415,-10.797 -0.021,-2.047C-0.02,-2.042 -0.02,-2.038 -0.02,-2.034L-0.02,-1.723L0,-1.744ZM30.34,8.687L40.19,15.206C34.826,23.256 25.773,28.069 16.1,28.017C-0.33,28.017 -12.58,15.317 -12.58,-0.893C-12.58,-18.094 -0.21,-29.813 14.69,-29.813C29.59,-29.813 37.04,-17.874 39.46,-11.424L40.77,-8.134L2.1,7.926C5.1,13.727 9.66,16.687 16.1,16.687C22.54,16.687 27.05,13.506 30.34,8.687" style="fill:rgb(232,67,53);fill-rule:nonzero;"/>
        </g>
        <g transform="matrix(1,0,0,1,116,415.62)">
            <path d="M0,17.12L0,4.849L41.35,4.849C41.778,7.293 41.982,9.769 41.96,12.25C41.96,21.46 39.44,32.84 31.33,40.939C23.45,49.149 13.33,53.53 0.04,53.53C-24.64,53.599 -45.5,33.39 -45.5,8.599C-45.5,-16.191 -24.64,-36.3 0.06,-36.3C11.562,-36.479 22.652,-32.021 30.83,-23.93L22.17,-15.271C16.22,-20.987 8.251,-24.121 0,-23.99C-17.784,-23.99 -32.2,-9.573 -32.2,8.21L-32.2,8.599C-32.417,26.386 -18.176,40.98 -0.39,41.2L0,41.2C11.74,41.2 18.4,36.49 22.68,32.2C26.14,28.729 28.43,23.769 29.33,17.01L0,17.12Z" style="fill:rgb(62,129,186);fill-rule:nonzero;"/>
        </g>
        <g transform="matrix(1,0,0,1,508.48,410.678)">
            <path d="M0,37.092C0.211,43.592 -2.649,49.812 -7.721,53.882C-13.1,58.102 -19.787,60.302 -26.62,60.103C-32.921,60.197 -39.068,58.164 -44.07,54.332C-49.175,50.35 -52.832,44.803 -54.48,38.542L-44.69,34.542C-44.075,36.836 -43.14,39.03 -41.91,41.063C-40.764,42.897 -39.34,44.543 -37.69,45.943C-36.137,47.291 -34.373,48.379 -32.471,49.162C-30.53,49.948 -28.454,50.346 -26.36,50.332C-22.238,50.512 -18.185,49.234 -14.91,46.723C-11.98,44.407 -10.328,40.835 -10.461,37.103C-10.419,33.862 -11.752,30.754 -14.131,28.553C-16.417,26.252 -20.714,24.026 -27.021,21.872C-31.062,20.522 -35.03,18.963 -38.91,17.202C-47.364,12.922 -51.591,6.589 -51.591,-1.798C-51.616,-7.593 -49.048,-13.095 -44.591,-16.798C-39.759,-20.986 -33.532,-23.21 -27.141,-23.027C-21.521,-23.16 -16.003,-21.526 -11.36,-18.357C-7.191,-15.663 -4.061,-11.633 -2.48,-6.928L-12.04,-2.928C-12.924,-5.899 -14.758,-8.498 -17.261,-10.328C-23.25,-14.395 -31.156,-14.239 -36.98,-9.937C-39.607,-8.089 -41.15,-5.059 -41.101,-1.847C-41.118,0.882 -39.941,3.483 -37.881,5.273C-35.511,7.273 -30.36,9.632 -22.431,12.393C-14.5,15.153 -8.601,18.473 -5.16,22.443C-1.669,26.509 0.172,31.736 0,37.092" style="fill:rgb(118,118,118);fill-rule:nonzero;"/>
        </g>
        <g transform="matrix(1,0,0,1,543.93,412.666)">
            <path d="M0,58.114C-7.564,58.327 -14.868,55.343 -20.12,49.893C-25.373,44.265 -28.206,36.8 -28.01,29.103C-28.01,20.73 -25.38,13.803 -20.12,8.324C-14.873,2.865 -7.567,-0.127 0,0.084C10.457,-0.213 19.992,6.031 23.9,15.734L14.561,19.643C11.707,12.837 6.634,9.433 -0.66,9.433C-5.34,9.435 -9.779,11.511 -12.779,15.103C-19.442,23.248 -19.442,34.96 -12.779,43.103C-9.776,46.692 -5.339,48.768 -0.66,48.774C6.82,48.774 12.08,45.36 15.12,38.534L24.25,42.444C22.39,47.162 19.104,51.182 14.851,53.944C10.422,56.772 5.254,58.224 0,58.114" style="fill:rgb(118,118,118);fill-rule:nonzero;"/>
        </g>
        <g transform="matrix(1,0,0,1,577.06,469.01)">
            <path d="M0,-79.59L10.221,-79.59L10.221,-54.47L9.78,-46.91L10.221,-46.91C11.958,-49.747 14.437,-52.057 17.391,-53.59C20.468,-55.301 23.93,-56.198 27.45,-56.2C34.117,-56.2 39.247,-54.29 42.841,-50.47C46.434,-46.65 48.23,-41.223 48.23,-34.19L48.23,0L38.011,0L38.011,-32.24C38.011,-42.02 33.677,-46.91 25.011,-46.91C20.884,-46.92 16.991,-44.99 14.5,-41.7C11.676,-38.322 10.157,-34.043 10.221,-29.64L10.221,0L-0.06,0L0,-79.59Z" style="fill:rgb(118,118,118);fill-rule:nonzero;"/>
        </g>
        <g transform="matrix(1,0,0,1,644.42,441.764)">
            <path d="M0,0.005C0,5.865 1.703,10.609 5.11,14.235C11.743,21.232 22.792,21.527 29.79,14.896C30.01,14.686 30.24,14.466 30.45,14.235C37.262,6.013 37.262,-5.891 30.45,-14.114C24.004,-21.115 13.104,-21.564 6.104,-15.118L6.1,-15.114C5.747,-14.795 5.413,-14.461 5.1,-14.114C1.607,-10.263 -0.225,-5.189 0,0.005M-10.24,0.005C-10.24,-8.368 -7.606,-15.295 -2.34,-20.774C2.906,-26.233 10.212,-29.225 17.78,-29.015C25.313,-29.24 32.587,-26.247 37.78,-20.784C43.113,-15.311 45.78,-8.385 45.78,-0.005C45.78,8.375 43.113,15.309 37.78,20.795C32.586,26.256 25.312,29.245 17.78,29.016C10.215,29.234 2.908,26.249 -2.34,20.795C-7.613,15.316 -10.246,8.386 -10.24,0.005" style="fill:rgb(118,118,118);fill-rule:nonzero;"/>
        </g>
        <g transform="matrix(-1,0,0,1,1408.16,242.38)">
            <rect x="698.941" y="147.04" width="10.279" height="79.54" style="fill:rgb(118,118,118);"/>
        </g>
        <g transform="matrix(1,0,0,1,728.55,431.365)">
            <path d="M0,20.965C-0.011,23.605 1.251,26.088 3.391,27.635C5.659,29.396 8.47,30.315 11.34,30.235C15.657,30.236 19.796,28.516 22.84,25.455C26.067,22.616 27.912,18.523 27.9,14.225C24.72,11.705 20.273,10.444 14.561,10.444C10.853,10.305 7.197,11.357 4.13,13.444C1.56,15.081 0.002,17.917 0,20.965M13.23,-18.615C20.804,-18.615 26.767,-16.598 31.12,-12.565C35.474,-8.532 37.647,-2.992 37.641,4.055L37.641,37.645L27.86,37.645L27.86,30.085L27.45,30.085C23.23,36.305 17.563,39.415 10.45,39.415C4.959,39.58 -0.395,37.679 -4.55,34.085C-8.48,30.781 -10.708,25.879 -10.609,20.745C-10.788,15.488 -8.401,10.473 -4.21,7.295C0.04,3.955 5.79,2.295 12.84,2.295C18.043,2.097 23.21,3.244 27.84,5.625L27.84,3.285C27.854,-0.214 26.308,-3.535 23.62,-5.775C20.929,-8.194 17.429,-9.517 13.811,-9.485C8.339,-9.613 3.198,-6.876 0.25,-2.265L-8.75,-7.935C-3.79,-15.056 3.537,-18.615 13.23,-18.615" style="fill:rgb(118,118,118);fill-rule:nonzero;"/>
        </g>
        <g transform="matrix(1,0,0,1,788,412.907)">
            <path d="M0,56.103L-10.2,56.103L-10.2,1.633L-0.4,1.633L-0.4,10.523L0,10.523C1.235,7.41 3.487,4.805 6.39,3.133C9.202,1.225 12.503,0.163 15.9,0.074C18.482,0 21.053,0.447 23.46,1.383L20.38,11.313C18.443,10.694 16.41,10.429 14.38,10.534C10.502,10.543 6.823,12.25 4.31,15.204C1.531,18.149 -0.002,22.054 0.03,26.103L0,56.103Z" style="fill:rgb(118,118,118);fill-rule:nonzero;"/>
        </g>
        <g transform="matrix(1,0,0,1,441,74.5644)">
            <path d="M0,219.813L-136.875,108.375L0,0L0,219.813Z" style="fill:rgb(62,129,186);fill-rule:nonzero;"/>
        </g>
        <g transform="matrix(1,0,0,1,441,74.5644)">
            <path d="M0,219.813L136.875,108.375L0,0L0,219.813Z" style="fill:rgb(47,104,172);fill-rule:nonzero;"/>
        </g>
        <g transform="matrix(-1,0,0,1,441,348.314)">
            <path d="M0,-159.69C-44.098,-159.69 -79.845,-123.942 -79.845,-79.845C-79.845,-35.747 -44.098,0 0,0C44.097,0 79.845,-35.747 79.845,-79.845C79.845,-123.942 44.097,-159.69 0,-159.69" style="fill:rgb(161,194,221);fill-rule:nonzero;"/>
        </g>
        <g transform="matrix(1,0,0,1,368.839,177.421)">
            <path d="M0,56.829C18.913,16.975 66.553,0 106.407,18.913C123.037,26.806 136.431,40.199 144.322,56.829L0,56.829Z" style="fill:rgb(119,165,205);fill-rule:nonzero;"/>
        </g>
    </g>
</svg>
